<?xml version="1.0" encoding="utf-8"?>
<!-- Generator: Adobe Illustrator 16.0.0, SVG Export Plug-In . SVG Version: 6.00 Build 0)  -->
<!DOCTYPE svg PUBLIC "-//W3C//DTD SVG 1.1//EN" "http://www.w3.org/Graphics/SVG/1.1/DTD/svg11.dtd">
<svg version="1.1" xmlns="http://www.w3.org/2000/svg" xmlns:xlink="http://www.w3.org/1999/xlink" x="0px" y="0px" width="96px"
	 height="95.333px" viewBox="0 0 96 95.333" enable-background="new 0 0 96 95.333" xml:space="preserve">
<g id="Layer_2">
</g>
<g id="Layer_8">
	<path fill="#22BCB9" d="M-558.005,287.258c0,0-13.662,16.359-25.774,16.359c-8.925,0-11.899-6.162-11.899-13.387
		c0-5.313,1.487-11.687,3.188-16.999c5.1-14.661,15.086-33.36,23.374-35.271l0.213,0.635c-4.676,3.4-8.289,8.289-8.289,14.877
		c0,4.885,3.401,9.771,9.139,9.771c8.498,0,14.235-10.197,14.235-19.973c0-9.137-5.312-18.062-18.911-18.062
		c-12.708,0-25.219,7.476-34.864,18.229l24.27-41.926h-38.502l-66.511,114.9h38.502l27.038-46.708
		c-1.694,5.319-2.631,10.692-2.631,15.851c0,17.637,7.863,33.998,31.449,33.998c22.645,0,43.624-28.699,43.624-28.699
		L-558.005,287.258z"/>
	<g>
		<path d="M-225.816,59.62c8.983-8.585,5.035-22.946-2.014-32.137l0.577-0.551c3.602,4.759,9.668,14.572,6.765,25.23
			c-0.968,3.605-3.795,7.412-7.34,10.799c-19.202,18.352-37.057,9.239-44.461,1.492c-11.342-11.869-11.099-33.229,3.241-46.934
			c4.698-4.49,8.685-6.093,15.143-6.43c4.198-0.228,9.821,0.706,13.128,4.167c3.15,3.297,7.324,11.293,0.153,18.145
			c-5.274,5.042-12.783,5.436-17.902,0.078c-4.804-5.027-4.489-11.793,1.197-17.228c1.731-1.654,3.447-2.664,4.582-2.96
			c-3.742-2.1-10.154-0.229-14.605,4.023c-7.005,6.695-1.017,16.426,13.16,31.26C-245.999,57.146-234.882,68.284-225.816,59.62z"/>
	</g>
	<path fill="#22BCB9" d="M-368.108,263.669l-2.125,5.101c-8.285,19.55-23.16,34.848-36.547,34.848
		c-8.925,0-11.898-6.162-11.898-13.387c0-5.313,1.486-11.687,3.188-16.999c5.1-14.661,15.086-33.36,23.373-35.271l0.213,0.635
		c-4.676,3.4-8.288,8.289-8.288,14.877c0,4.885,3.401,9.771,9.139,9.771c8.498,0,14.235-10.197,14.235-19.973
		c0-9.137-5.312-18.062-18.91-18.062c-12.709,0-25.219,7.476-34.865,18.229l24.271-41.926h-36.502l-33.256,57.449l-33.255,57.451
		h36.502l27.038-46.708c-1.694,5.319-2.631,10.692-2.631,15.851c0,17.637,7.862,33.998,31.449,33.998
		c25.286,0,44.409-22.949,55.246-48.021c0.638-1.488,1.487-3.188,2.125-4.675L-368.108,263.669z"/>
	<path d="M-277.037,62.135V48.227v-7.41V11.334v-24.667h-32.489v0.684c8.892,0,9.576,2.508,9.576,10.944v63.839
		c0,8.436-0.684,11.172-9.576,11.172v0.684h37.505v-0.684c-3.696,0-4.68-2.434-4.932-7.056l-0.084-0.067V62.135z"/>
	<path stroke="#000000" stroke-miterlimit="10" d="M85.748,44.02l-0.577,0.552c7.049,9.19,10.997,23.552,2.014,32.137
		c-9.066,8.664-20.183-2.474-28.374-11.045c-14.177-14.834-20.165-24.564-13.16-31.26c4.451-4.253,10.863-6.124,14.605-4.023
		c-1.135,0.297-2.851,1.306-4.582,2.96c-5.687,5.434-6.001,12.201-1.197,17.227c5.119,5.358,12.627,4.964,17.902-0.078
		c7.17-6.852,2.997-14.848-0.153-18.145c-3.308-3.461-8.931-4.395-13.128-4.167c-6.458,0.337-10.445,1.94-15.143,6.43
		c-3.487,3.333-6.134,7.12-7.99,11.112V28.422V3.755H3.474v0.684c8.892,0,9.576,2.508,9.576,10.944v63.839
		c0,8.436-0.684,11.172-9.576,11.172v0.684h37.505v-0.684c-3.696,0-4.68-2.434-4.932-7.056l-0.084-0.067v-4.049v-4.458
		c1.245,2.474,2.826,4.764,4.749,6.776c7.404,7.747,25.259,16.859,44.461-1.492c3.544-3.387,6.372-7.193,7.34-10.799
		C95.416,58.592,89.349,48.778,85.748,44.02z"/>
	<path d="M-277.037,66.184l0.084,0.067c-0.066-1.223-0.084-2.59-0.084-4.116V66.184z"/>
	<path d="M-267.19-90.146c2.964,4.674,5.814,9.006,5.814,10.83c0,0.113-0.114,2.622-4.788,2.622v0.684h40.469v-0.684
		c-4.788-0.343-7.638,0.798-15.162-10.944l-22.001-34.085c8.436-11.173,14.364-13.452,24.167-13.452v-0.799h-32.375v0.799h1.368
		c4.332,0,8.436,0.342,8.436,6.498c0,3.876-2.508,7.409-8.208,13.907l-4.902,5.586v7.41L-267.19-90.146z"/>
</g>
</svg>
