<?xml version="1.0" encoding="utf-8"?>
<!-- Generator: Adobe Illustrator 16.0.0, SVG Export Plug-In . SVG Version: 6.00 Build 0)  -->
<!DOCTYPE svg PUBLIC "-//W3C//DTD SVG 1.1//EN" "http://www.w3.org/Graphics/SVG/1.1/DTD/svg11.dtd">
<svg version="1.1" xmlns="http://www.w3.org/2000/svg" xmlns:xlink="http://www.w3.org/1999/xlink" x="0px" y="0px" width="96px"
	 height="95.333px" viewBox="0 0 96 95.333" enable-background="new 0 0 96 95.333" xml:space="preserve">
<g id="Layer_2">
</g>
<g id="Layer_8">
	<path fill="#FFFFFF" stroke="#FFFFFF" stroke-miterlimit="10" d="M85.748,44.02l-0.577,0.552
		c7.049,9.19,10.997,23.552,2.014,32.137c-9.066,8.664-20.183-2.474-28.374-11.045c-14.177-14.834-20.165-24.564-13.16-31.26
		c4.451-4.253,10.863-6.124,14.605-4.023c-1.135,0.297-2.851,1.306-4.582,2.96c-5.687,5.434-6.001,12.201-1.197,17.227
		c5.119,5.358,12.627,4.964,17.902-0.078c7.17-6.852,2.997-14.848-0.153-18.145c-3.308-3.461-8.931-4.395-13.128-4.167
		c-6.458,0.337-10.445,1.94-15.143,6.43c-3.487,3.333-6.134,7.12-7.99,11.112V28.422V3.755H3.474v0.684
		c8.892,0,9.576,2.508,9.576,10.944v63.839c0,8.436-0.684,11.172-9.576,11.172v0.684h37.505v-0.684c-3.696,0-4.68-2.434-4.932-7.056
		l-0.084-0.067v-4.049v-4.458c1.245,2.474,2.826,4.764,4.749,6.776c7.404,7.747,25.259,16.859,44.461-1.492
		c3.544-3.387,6.372-7.193,7.34-10.799C95.416,58.592,89.349,48.778,85.748,44.02z"/>
</g>
</svg>
