<?xml version="1.0" encoding="utf-8"?>
<!-- Generator: Adobe Illustrator 16.0.0, SVG Export Plug-In . SVG Version: 6.00 Build 0)  -->
<!DOCTYPE svg PUBLIC "-//W3C//DTD SVG 1.1//EN" "http://www.w3.org/Graphics/SVG/1.1/DTD/svg11.dtd">
<svg version="1.1" xmlns="http://www.w3.org/2000/svg" xmlns:xlink="http://www.w3.org/1999/xlink" x="0px" y="0px"
	 width="172.667px" height="142.667px" viewBox="0 0 172.667 142.667" enable-background="new 0 0 172.667 142.667"
	 xml:space="preserve">
<g id="Layer_1" display="none">
	<text transform="matrix(1 0 0 1 94.9189 146.3657)" display="inline"><tspan x="0" y="0" fill="#22BCB9" font-family="'ITCAvantGardeStd-Md'" font-size="26" letter-spacing="5">KI</tspan><tspan x="33.514" y="0" fill="#22BCB9" font-family="'ITCAvantGardeStd-Md'" font-size="26">M</tspan></text>
</g>
<g id="Layer_3" display="none">
	<g display="inline">
		<path fill="#22BCB9" d="M115.653-27.186h8.497v25.202l14.647-23.12l4.625-2.082h9.242l-20.738,26.57l22.826,26.714l-4.861,2.078
			l-5.58-2.078L124.149,1.544v24.554l-4.837,2.078l-3.66-2.078l-4.84-51.218L115.653-27.186z"/>
	</g>
	<g display="inline">
		<path fill="#22BCB9" d="M200.063,9.975c-2.792,9.721-10.771,17.192-23.021,18.942c-13.4,1.914-21.775-14.333-21.775-29.455
			c0-8.025,0.896-17.39,6.53-21.722c4.734-3.641,10.631-5.856,16.9-5.856c12.079,0.072,19.242,10.153,21.427,17.497l-4.749,2
			l-2.839-2c-1.457-3.456-6.009-9.937-13.9-10.009c-9.53,0-16.207,9.289-16.207,20.09c0,11.089,6.798,20.234,16.268,20.234
			c8.68,0,8.098-5.762,9.069-7.706l4.771-2.015H200.063z"/>
	</g>
</g>
<g id="Layer_4_copy" display="none">
	
		<text transform="matrix(1 0 0 1 109.3867 28.1763)" display="inline" fill="#22BCB9" font-family="'ITCAvantGardeStd-Md'" font-size="72" letter-spacing="14">K</text>
	
		<text transform="matrix(0.8429 0 0 1 153.1372 28.1763)" display="inline" fill="#22BCB9" font-family="'ITCAvantGardeStd-Md'" font-size="72" letter-spacing="14.236">C</text>
</g>
<g id="Layer_4" display="none">
	
		<text transform="matrix(1 0 0 1 104.3867 28.1763)" display="inline" font-family="'ITCAvantGardeStd-Md'" font-size="72" letter-spacing="14">K</text>
	
		<text transform="matrix(0.8429 0 0 1 148.1372 28.1763)" display="inline" font-family="'ITCAvantGardeStd-Md'" font-size="72" letter-spacing="14.236">C</text>
</g>
<g id="Layer_4_copy_2" display="none">
	<polygon display="inline" points="140.596,52.469 130.145,46.398 119.663,52.414 119.63,64.5 	"/>
	<g display="inline">
		<path d="M110.795-25.108h8.497V0.094l19.514-25.202h9.001l-20.738,26.57l22.826,26.714h-10.441L119.292,3.623v24.554h-8.497
			V-25.108z"/>
	</g>
	<g display="inline">
		<path d="M195.301,11.975c-2.792,9.721-11.108,17.209-21.306,17.209c-13.536,0-23.491-12.601-23.491-27.723
			c0-14.617,9.53-27.578,23.43-27.578c12.079,0.072,19.242,10.153,21.427,17.497h-7.587c-1.457-3.456-6.009-9.937-13.9-10.009
			c-9.53,0-16.207,9.289-16.207,20.09c0,11.089,6.798,20.234,16.268,20.234c8.68,0,12.868-7.777,13.839-9.721H195.301z"/>
	</g>
	<g display="inline">
		<polygon points="92.169,109.187 101.544,109.187 101.544,94.374 92.169,84.958 		"/>
		<polygon points="129.422,109.187 101.544,81.189 101.544,94.374 116.294,109.187 		"/>
	</g>
</g>
<g id="Layer_2" display="none">
	<g display="inline">
		<g>
			<defs>
				<rect id="SVGID_1_" x="89" y="-2.391" width="121.25" height="7.609"/>
			</defs>
			<clipPath id="SVGID_2_">
				<use xlink:href="#SVGID_1_"  overflow="visible"/>
			</clipPath>
			
				<line clip-path="url(#SVGID_2_)" fill="none" stroke="#CBB677" stroke-width="0.75" x1="89" y1="1.463" x2="205.476" y2="1.463"/>
		</g>
		<polygon fill="#CBB677" points="210.25,1.282 205.476,4.87 205.476,-2.305 		"/>
		<g>
			<defs>
				<rect id="SVGID_3_" x="89" y="-2.391" width="121.25" height="7.609"/>
			</defs>
			<clipPath id="SVGID_4_">
				<use xlink:href="#SVGID_3_"  overflow="visible"/>
			</clipPath>
			<polyline clip-path="url(#SVGID_4_)" fill="none" stroke="#CBB677" stroke-width="0.75" points="101.447,-2.176 105.398,1.411 
				101.257,4.998 			"/>
			<polyline clip-path="url(#SVGID_4_)" fill="none" stroke="#CBB677" stroke-width="0.75" points="99.633,-2.176 103.583,1.411 
				99.442,4.998 			"/>
			<polyline clip-path="url(#SVGID_4_)" fill="none" stroke="#CBB677" stroke-width="0.75" points="97.629,-2.176 101.579,1.411 
				97.438,4.998 			"/>
			<polyline clip-path="url(#SVGID_4_)" fill="none" stroke="#CBB677" stroke-width="0.75" points="95.719,-2.176 99.671,1.411 
				95.529,4.998 			"/>
			<polyline clip-path="url(#SVGID_4_)" fill="none" stroke="#CBB677" stroke-width="0.75" points="93.809,-2.176 97.759,1.411 
				93.619,4.998 			"/>
			<polyline clip-path="url(#SVGID_4_)" fill="none" stroke="#CBB677" stroke-width="0.75" points="91.805,-2.176 95.754,1.411 
				91.613,4.998 			"/>
		</g>
	</g>
	<polygon display="inline" fill="#22BCB9" points="-48,-51.841 -28.5,-34.891 -28.5,-0.391 -48,-20.506 	"/>
	<polygon display="inline" fill="#22BCB9" points="-9,-51.841 -28.5,-34.891 -28.5,-0.391 -9,-20.506 	"/>
	<polygon display="inline" fill="#22BCB9" points="56.225,142.025 39.275,161.525 4.775,161.525 24.89,142.024 	"/>
	<polygon display="inline" fill="#22BCB9" points="56.226,181.024 39.275,161.525 4.775,161.525 24.89,181.024 	"/>
	<polygon display="inline" fill="#22BCB9" points="18.499,218.218 -1.001,201.269 -1.001,166.768 18.5,186.883 	"/>
	<polygon display="inline" fill="#22BCB9" points="18.499,104.573 -1.001,121.522 -1.001,156.023 18.5,135.908 	"/>
	<polygon display="inline" fill="none" stroke="#22BCB9" stroke-width="3" points="-118.615,50.499 -149.916,104.573 
		-212.627,104.573 -181.328,50.499 -150.026,-3.575 -87.314,-3.575 	"/>
	<polygon display="inline" fill="none" stroke="#22BCB9" stroke-width="3" points="-507.387,252.001 -538.688,306.076 
		-601.399,306.076 -570.1,252.001 -538.798,197.927 -476.086,197.927 	"/>
	<rect x="-23.75" y="252" display="inline" fill="#22BCB9" stroke="#FFFFFF" stroke-width="2" width="23.519" height="93.334"/>
	<polygon display="inline" fill="#22BCB9" stroke="#FFFFFF" stroke-width="2" points="13.329,345.334 -13.731,298.667 14.25,252 
		27.731,252 -0.25,298.667 26.81,345.334 	"/>
	<polygon display="inline" fill="#22BCB9" stroke="#FFFFFF" stroke-width="2" points="33.231,333.126 52.276,300.792 
		65.999,300.523 40.115,345.334 26.829,345.334 -0.231,298.667 27.75,252 41.231,252 13.25,298.667 	"/>
	<rect x="84.5" y="312.75" display="inline" fill="#22BCB9" stroke="#FFFFFF" stroke-width="2" width="23.519" height="93.334"/>
	<polygon display="inline" fill="#22BCB9" stroke="#FFFFFF" stroke-width="2" points="213.829,401.334 186.769,354.667 214.75,308 
		228.231,308 200.25,354.667 227.31,401.334 	"/>
	<polygon display="inline" fill="#22BCB9" stroke="#FFFFFF" stroke-width="2" points="136.394,382.833 149.776,361.542 
		175.518,361.273 149.634,406.084 124.329,406.084 97.269,359.417 125.25,312.75 150.75,312.75 122.769,359.417 	"/>
	<g display="inline">
		<g>
			<path fill="none" stroke="#000000" d="M-369.373,270.063c0,20.8,0.52,51.424,22.52,51.424c21.8,0,34.199-23,36.399-43.2h1.4
				c-1.2,10.4-5.4,30.2-22,40.2c-5.6,3.399-13.8,4.8-22.4,4.8"/>
		</g>
		<g>
			<path fill="none" stroke="#000000" d="M-353.454,323.287h-36.973v-1.199c8.2,0,8.4-4.4,8.4-4.6c0-3.201-5-10.801-10.2-19
				l-12.6-20.4v24.4c0,12.799,0.6,19.6,8.8,19.6v1.199h-65.799v-1.199c15.6,0,16.8-4.801,16.8-19.6V190.49
				c0-14.801-1.2-19.2-16.8-19.2v-1.2h56.999l-0.002,70.321 M-369.293,267.039"/>
		</g>
		<path fill="none" stroke="#000000" d="M-404.828,240.411c9.918-17.697,30.028-30.771,54.335-30.771c11.4,0,18.399,2.8,27,10.2
			c5.6,4.8,11.6,12.8,11.6,21.199c0,8-4.4,23.2-21.799,23.2c-12.8,0-22.8-8.601-22.8-21.6c0-12.2,8.6-20.4,22.399-20.4
			c4.2,0,7.6,0.8,9.4,1.8c-2.2-7.199-12.6-12.6-23.399-12.6c-17,0-21.28,22.624-21.28,58.624"/>
	</g>
	<g display="inline">
		<path fill="none" stroke="#000000" d="M-468.381,492.298v5.101c0,12.8,0.6,19.6,8.8,19.6v1.2h-65.799v-1.2
			c15.6,0,16.8-4.8,16.8-19.6V385.401c0-14.8-1.2-19.2-16.8-19.2v-1.199h56.999V460l8.6-9.8c10-11.399,14.399-17.6,14.399-24.399
			c0-10.8-7.2-11.4-14.8-11.4h-2.4V413l55.171-0.108 M-406.21,414.492c-17.2,0-27.172,3.908-41.972,23.508l15.809,27.873"/>
	</g>
	<g display="inline">
		<path fill="none" stroke="#000000" d="M-432.373,465.873c0,20.8,0.555,51.711,22.555,51.711c21.8,0,34.2-23,36.399-43.2h1.4
			c-1.2,10.4-5.4,30.2-22,40.2c-5.6,3.399-13.8,4.8-22.4,4.8c-28.988,0-44.432-12.848-51.965-27.084"/>
	</g>
	<path display="inline" fill="none" stroke="#000000" d="M-407.41,412.892c11.4,0,16.772,2.692,25.372,10.093
		c5.6,4.8,11.6,12.8,11.6,21.199c0,8-4.4,23.2-21.799,23.2c-12.8,0-22.8-8.601-22.8-21.6c0-12.2,8.6-20.4,22.399-20.4
		c4.2,0,7.6,0.8,9.4,1.8c-2.2-7.199-12.172-12.692-22.972-12.692"/>
</g>
<g id="Layer_7" display="none">
	<polygon display="inline" points="255.065,-14.617 456.838,-131.109 658.61,-14.617 658.61,218.371 456.838,334.863 
		255.065,218.371 	"/>
	<polygon display="inline" fill="#22BCB9" points="578.229,176.768 483.988,13.535 466.447,13.535 436.871,95.145 483.988,176.768 	
		"/>
	<rect x="354.992" y="-48.851" display="inline" fill="#22BCB9" width="81.879" height="225.619"/>
	<rect x="337.447" y="-48.851" display="inline" fill="#FFFFFF" width="81.879" height="225.619"/>
	<polygon display="inline" fill="#FFFFFF" points="560.688,176.768 466.447,13.535 419.326,95.145 466.447,176.768 	"/>
	<g display="inline">
		<g>
			<defs>
				<rect id="SVGID_5_" x="316.943" y="189.33" width="281.788" height="19.3"/>
			</defs>
			<clipPath id="SVGID_6_">
				<use xlink:href="#SVGID_5_"  overflow="visible"/>
			</clipPath>
			
				<line clip-path="url(#SVGID_6_)" fill="none" stroke="#FFFFFF" stroke-width="2" x1="316.943" y1="199.104" x2="587.635" y2="199.104"/>
		</g>
		<polygon fill="#FFFFFF" points="598.731,198.647 587.635,207.745 587.635,189.549 		"/>
		<g>
			<defs>
				<rect id="SVGID_7_" x="316.943" y="189.33" width="281.788" height="19.3"/>
			</defs>
			<clipPath id="SVGID_8_">
				<use xlink:href="#SVGID_7_"  overflow="visible"/>
			</clipPath>
			<polyline clip-path="url(#SVGID_8_)" fill="none" stroke="#FFFFFF" stroke-width="2" points="345.871,189.875 355.056,198.972 
				345.432,208.068 			"/>
			<polyline clip-path="url(#SVGID_8_)" fill="none" stroke="#FFFFFF" stroke-width="2" points="341.657,189.875 350.836,198.972 
				341.211,208.068 			"/>
			<polyline clip-path="url(#SVGID_8_)" fill="none" stroke="#FFFFFF" stroke-width="2" points="336.999,189.875 346.178,198.972 
				336.553,208.068 			"/>
			<polyline clip-path="url(#SVGID_8_)" fill="none" stroke="#FFFFFF" stroke-width="2" points="332.563,189.875 341.742,198.972 
				332.117,208.068 			"/>
			<polyline clip-path="url(#SVGID_8_)" fill="none" stroke="#FFFFFF" stroke-width="2" points="328.121,189.875 337.3,198.972 
				327.681,208.068 			"/>
			<polyline clip-path="url(#SVGID_8_)" fill="none" stroke="#FFFFFF" stroke-width="2" points="323.463,189.875 332.642,198.972 
				323.017,208.068 			"/>
		</g>
	</g>
	<rect x="305.338" y="222.333" display="inline" fill="none" width="305" height="61"/>
	
		<text transform="matrix(1 0 0 1 321.1836 241.5737)" display="inline" fill="#22BCB9" font-family="'ITCAvantGardeStd-Md'" font-size="26" letter-spacing="5">KIM CALDERONE</text>
	<path display="inline" fill="none" stroke="#22BCB9" stroke-miterlimit="10" d="M-427.164,18.436l-2,4.8
		c-7.8,18.4-21.8,32.8-34.399,32.8c-8.4,0-11.2-5.8-11.2-12.6c0-5,1.4-11,3-16c4.8-13.8,14.2-31.399,22-33.199l0.2,0.6
		c-4.4,3.2-7.8,7.8-7.8,14c0,4.6,3.2,9.2,8.6,9.2c8,0,13.4-9.6,13.4-18.8c0-8.6-5-17-17.8-17c-11.961,0-23.736,7.035-32.813,17.157
		l22.842-39.461h-34.065L-528.5,14.006l-31.3,54.074h34.065l25.449-43.964c-1.595,5.007-2.476,10.063-2.476,14.919
		c0,16.601,7.4,32,29.6,32c23.799,0,41.799-21.6,51.999-45.199c0.6-1.4,1.4-3,2-4.4L-427.164,18.436z"/>
</g>
<g id="Layer_8">
	<g>
		<path fill="#22BCB9" d="M120.301,8.23L97.459,47.692c9.077-10.123,20.852-17.157,32.813-17.157c12.8,0,17.8,8.4,17.8,17
			c0,9.2-5.4,18.8-13.4,18.8c-5.4,0-8.6-4.601-8.6-9.2c0-6.2,3.4-10.8,7.8-14l-0.2-0.6c-7.8,1.8-17.2,19.399-22,33.199
			c-1.6,5-3,11-3,16c0,6.8,2.8,12.6,11.2,12.6c12.6,0,26.6-14.399,34.399-32.8l2-4.8l8,3c-0.6,1.4-1.4,3-2,4.4
			c-10.2,23.6-28.2,45.199-51.999,45.199c-22.2,0-29.6-15.399-29.6-32c0-4.855,0.881-9.912,2.476-14.919L57.7,116.378H13.932
			l31.3-54.074L76.533,8.23H120.301 M127.238,4.23h-6.937H76.533h-2.306l-1.156,1.996L41.77,60.3l-31.3,54.074l-3.475,6.004h6.937
			H57.7h2.307l1.155-1.996l15.651-27.038c0.591,8.286,3.044,15.376,7.181,20.676c5.86,7.507,14.701,11.313,26.278,11.313
			c12.139,0,23.531-4.998,33.861-14.856c8.521-8.131,16.062-19.458,21.81-32.756c0.28-0.653,0.606-1.354,0.953-2.095
			c0.357-0.766,0.727-1.558,1.052-2.316l1.65-3.85l-3.922-1.471l-8-3l-3.612-1.355l-1.484,3.562l-2,4.8
			c-7.448,17.57-20.366,30.338-30.707,30.338c-2.154,0-7.2,0-7.2-8.6c0-3.859,0.992-9.089,2.794-14.733
			c2.019-5.797,4.515-11.393,7.108-16.18c1.409,5.117,5.713,9.513,12.097,9.513c10.748,0,17.4-11.835,17.4-22.8
			c0-9.688-5.709-21-21.8-21c-6.211,0-12.637,1.743-18.84,5.002l12.331-21.303L127.238,4.23L127.238,4.23z"/>
	</g>
	<g>
		<path d="M6.262,140.295v-11.36h2.624v5.12l4.384-5.12h2.72l-4.256,5.072l4.544,6.288H13.51l-3.328-4.816l-1.296,1.408v3.408H6.262
			z"/>
		<path d="M19.494,140.295v-11.36h2.624v11.36H19.494z"/>
		<path d="M35.653,140.295v-6.8l-2.464,4.943h-1.408l-2.464-4.943v6.8h-2.624v-11.36h2.848l2.944,5.937l2.96-5.937h2.832v11.36
			H35.653z"/>
		<path d="M48.325,134.519c0-0.683,0.123-1.362,0.368-2.04c0.246-0.677,0.603-1.282,1.072-1.815c0.469-0.533,1.042-0.966,1.72-1.296
			c0.677-0.331,1.448-0.496,2.312-0.496c1.014,0,1.894,0.229,2.64,0.688c0.747,0.459,1.301,1.057,1.664,1.792l-2.016,1.408
			c-0.117-0.299-0.267-0.546-0.448-0.744c-0.182-0.197-0.379-0.357-0.592-0.479c-0.213-0.123-0.435-0.208-0.664-0.256
			c-0.229-0.049-0.445-0.072-0.648-0.072c-0.469,0-0.875,0.102-1.216,0.304c-0.341,0.203-0.624,0.464-0.848,0.784
			s-0.392,0.683-0.504,1.088s-0.168,0.816-0.168,1.232c0,0.447,0.066,0.88,0.2,1.296c0.133,0.416,0.32,0.784,0.56,1.104
			c0.24,0.32,0.531,0.574,0.872,0.761s0.72,0.279,1.136,0.279c0.213,0,0.435-0.029,0.664-0.088c0.229-0.059,0.45-0.149,0.664-0.271
			c0.213-0.123,0.405-0.283,0.576-0.48s0.31-0.439,0.416-0.728l2.16,1.264c-0.171,0.416-0.419,0.789-0.744,1.12
			s-0.696,0.607-1.112,0.832c-0.416,0.224-0.856,0.395-1.32,0.512c-0.464,0.117-0.92,0.176-1.368,0.176
			c-0.79,0-1.512-0.168-2.168-0.504c-0.656-0.336-1.222-0.781-1.696-1.336s-0.845-1.184-1.112-1.888S48.325,135.245,48.325,134.519z
			"/>
		<path d="M60.693,140.295l4.368-11.36h2.128l4.352,11.36h-2.784l-0.88-2.544h-3.536l-0.864,2.544H60.693z M66.117,131.719
			l-1.36,4.225h2.672L66.117,131.719z"/>
		<path d="M74.981,140.295v-11.36h2.624v9.057h5.504v2.304H74.981z"/>
		<path d="M86.805,140.295v-11.36h4.24c0.938,0,1.76,0.149,2.464,0.448s1.293,0.704,1.768,1.216c0.475,0.513,0.832,1.112,1.072,1.8
			c0.24,0.688,0.36,1.422,0.36,2.2c0,0.864-0.134,1.646-0.4,2.345c-0.267,0.698-0.648,1.296-1.144,1.792
			c-0.496,0.495-1.094,0.88-1.792,1.151c-0.699,0.272-1.475,0.408-2.328,0.408H86.805z M94.037,134.599
			c0-0.501-0.066-0.957-0.2-1.368c-0.134-0.41-0.328-0.765-0.584-1.063c-0.256-0.299-0.571-0.528-0.944-0.688
			c-0.374-0.159-0.794-0.239-1.264-0.239h-1.616v6.752h1.616c0.48,0,0.906-0.086,1.28-0.256c0.374-0.171,0.686-0.408,0.936-0.713
			c0.25-0.304,0.442-0.661,0.576-1.071C93.97,135.541,94.037,135.09,94.037,134.599z"/>
		<path d="M108.661,137.992v2.304h-7.984v-11.36h7.84v2.305h-5.216v2.208h4.48v2.128h-4.48v2.416H108.661z"/>
		<path d="M112.693,140.295v-11.36h5.12c0.533,0,1.026,0.112,1.48,0.336c0.453,0.225,0.845,0.518,1.176,0.881
			c0.331,0.362,0.589,0.773,0.776,1.231c0.187,0.459,0.28,0.923,0.28,1.393c0,0.352-0.042,0.69-0.128,1.016s-0.208,0.632-0.368,0.92
			c-0.16,0.288-0.354,0.547-0.584,0.776s-0.488,0.424-0.776,0.584l2.608,4.224h-2.96l-2.288-3.664h-1.712v3.664H112.693z
			 M115.317,134.343h2.4c0.31,0,0.576-0.146,0.8-0.439c0.224-0.294,0.336-0.67,0.336-1.128c0-0.47-0.128-0.843-0.384-1.12
			c-0.256-0.277-0.533-0.416-0.832-0.416h-2.32V134.343z"/>
		<path d="M130.581,140.391c-0.811,0-1.547-0.165-2.208-0.496c-0.662-0.33-1.229-0.765-1.704-1.304
			c-0.475-0.538-0.843-1.154-1.104-1.848s-0.392-1.408-0.392-2.145c0-0.746,0.136-1.466,0.408-2.16
			c0.272-0.692,0.65-1.304,1.136-1.832c0.485-0.527,1.061-0.949,1.728-1.264c0.667-0.314,1.394-0.472,2.184-0.472
			c0.811,0,1.547,0.165,2.208,0.496c0.662,0.33,1.229,0.768,1.704,1.312s0.84,1.163,1.096,1.856
			c0.256,0.693,0.384,1.397,0.384,2.111c0,0.747-0.136,1.467-0.408,2.16s-0.648,1.305-1.128,1.832
			c-0.48,0.528-1.053,0.952-1.72,1.272C132.098,140.231,131.37,140.391,130.581,140.391z M127.845,134.631
			c0,0.438,0.061,0.861,0.184,1.272c0.122,0.41,0.298,0.775,0.528,1.096c0.229,0.32,0.517,0.576,0.864,0.768
			c0.347,0.192,0.744,0.288,1.192,0.288c0.458,0,0.858-0.101,1.2-0.304c0.341-0.202,0.626-0.467,0.856-0.792s0.4-0.693,0.512-1.104
			c0.112-0.41,0.168-0.829,0.168-1.256c0-0.437-0.062-0.861-0.184-1.271c-0.123-0.411-0.301-0.773-0.536-1.088
			c-0.234-0.314-0.522-0.565-0.864-0.752s-0.731-0.28-1.168-0.28c-0.459,0-0.859,0.099-1.2,0.296s-0.626,0.456-0.856,0.776
			c-0.229,0.319-0.403,0.686-0.52,1.096C127.903,133.787,127.845,134.205,127.845,134.631z"/>
		<path d="M142.581,133.799v6.496h-2.624v-11.36h2.048l5.296,6.672v-6.672h2.624v11.36h-2.112L142.581,133.799z"/>
		<path d="M162.484,137.992v2.304H154.5v-11.36h7.84v2.305h-5.216v2.208h4.48v2.128h-4.48v2.416H162.484z"/>
	</g>
</g>
</svg>
